<?xml version="1.0" standalone="no"?>
<!DOCTYPE svg PUBLIC "-//W3C//DTD SVG 1.1//EN" "http://www.w3.org/Graphics/SVG/1.1/DTD/svg11.dtd">
<svg width="30" height="12" viewBox="-7 -6 15 6" xmlns="http://www.w3.org/2000/svg" version="1.1">
<title>OpenSCAD Model</title>
<path d="
M 7.62434,-0.0157013 L 7.74088,-0.0618439 L 7.84227,-0.135513 L 7.92215,-0.232086 L 7.97552,-0.34549 L 7.99901,-0.468597
 L 8,-4 L 7.98428,-4.12434 L 7.93814,-4.24088 L 7.86447,-4.34227 L 7.7679,-4.42215 L 7.6545,-4.47552
 L 7.53139,-4.49901 L 0.5,-4.5 L 0.375641,-4.48428 L 0.259109,-4.43814 L 0.157715,-4.36447 L 0.0778351,-4.2679
 L 0.0244598,-4.1545 L 0.000976562,-4.03139 L 0,-3 L -7,-5.75 L -7,-5.5 L 0,-0.5
 L 0.0157013,-0.375641 L 0.0618439,-0.259109 L 0.135513,-0.157715 L 0.232086,-0.0778351 L 0.34549,-0.0244598 L 0.468597,-0.000976562
 L 7.5,-0 z
" stroke="rgba(1, 1, 1, 0.5)" fill="lightgray" stroke-width="0.5"/></svg>
