<?xml version="1.0" standalone="no"?>
<!DOCTYPE svg PUBLIC "-//W3C//DTD SVG 1.1//EN" "http://www.w3.org/Graphics/SVG/1.1/DTD/svg11.dtd">
<svg width="51" height="27" viewBox="-1 -4 17 9" xmlns="http://www.w3.org/2000/svg" version="1.1">
<title>OpenSCAD Model</title>
<path d="
M 8.94171,2.73042 L 15.5494,0.326477 L 15.6609,0.26918 L 15.7546,0.185974 L 15.8247,0.0820618 L 15.8667,-0.0359955
 L 15.8781,-0.160812 L 15.858,-0.284531 L 14.6512,-3.60329 L 14.5939,-3.71477 L 14.5107,-3.80849 L 14.4068,-3.87857
 L 14.2887,-3.92062 L 14.1639,-3.93198 L 14.0401,-3.91194 L 7.43246,-1.508 L 7.32098,-1.4507 L 7.22726,-1.36749
 L 7.15718,-1.26358 L 7.11513,-1.14551 L 7.10378,-1.02069 L 7.12381,-0.896973 L 7.47565,0.0725403 L -0.0427399,-0.117447
 L 0.0427399,0.117447 L 8.33069,2.42178 L 8.38799,2.53325 L 8.47119,2.62697 L 8.5751,2.69705 L 8.69318,2.73911
 L 8.81799,2.75046 z
M 0.328857,4.44437 L 0.553391,4.33292 L 0.743134,4.16913 L 0.8862,3.96329 L 0.973572,3.72835 L 0.999771,3.47905
 L 0.96315,3.23108 L 0.866013,3 L 0,1.5 L -0.937271,3.15141 L -0.994507,3.39546 L -0.989258,3.64607
 L -0.92186,3.88751 L -0.796524,4.1046 L -0.62114,4.28369 L -0.406723,4.41354 L -0.166763,4.48599 L 0.0836639,4.49649
 z
" stroke="rgba(1, 1, 1, 0.5)" fill="lightgray" stroke-width="0.5"/></svg>
